<svg width="221" height="181" viewBox="0 0 221 181" fill="none" xmlns="http://www.w3.org/2000/svg">
<g clip-path="url(#clip0)">
<path d="M193.032 144.086C193.032 137.192 191.094 130.436 187.438 124.588C183.782 118.74 178.556 114.034 172.353 111.006C166.151 107.978 159.221 106.75 152.354 107.46C145.487 108.171 138.957 110.792 133.508 115.026C128.87 109.667 122.886 105.64 116.171 103.359C109.456 101.077 102.254 100.624 95.3056 102.046C88.3572 103.468 81.9139 106.713 76.6393 111.448C71.3646 116.183 67.4491 122.236 65.2961 128.984C61.6936 125.786 57.3671 123.51 52.6888 122.351C48.0105 121.193 43.1203 121.186 38.4388 122.332C33.7573 123.478 29.4246 125.742 25.8133 128.93C22.202 132.117 19.4203 136.133 17.7073 140.632C15.9943 145.131 15.4013 149.977 15.9793 154.756C16.5573 159.534 18.2891 164.1 21.0256 168.062C23.7621 172.024 27.4215 175.263 31.6891 177.501C35.9566 179.738 40.7047 180.907 45.5248 180.907C45.9873 180.907 46.4469 180.895 46.9043 180.874C47.3766 180.895 47.8509 180.907 48.3282 180.907H160.037C168.075 180.907 175.825 177.918 181.777 172.525C187.729 167.131 191.456 159.718 192.234 151.73C192.765 149.216 193.033 146.654 193.032 144.086Z" fill="#FFC107"/>
<path d="M194.286 139.577C194.286 132.683 192.348 125.928 188.692 120.08C185.036 114.232 179.81 109.526 173.607 106.498C167.405 103.47 160.476 102.241 153.608 102.952C146.741 103.662 140.211 106.284 134.762 110.517C130.124 105.159 124.14 101.132 117.425 98.8502C110.711 96.5688 103.508 96.1157 96.5599 97.5376C89.6115 98.9594 83.1682 102.205 77.8935 106.94C72.6188 111.674 68.7034 117.727 66.5503 124.475C62.9479 121.278 58.6214 119.002 53.9431 117.843C49.2648 116.684 44.3746 116.677 39.693 117.823C35.0115 118.969 30.6788 121.233 27.0676 124.421C23.4563 127.609 20.6745 131.625 18.9615 136.123C17.2485 140.622 16.6555 145.469 17.2336 150.247C17.8116 155.025 19.5433 159.592 22.2798 163.554C25.0164 167.516 28.6758 170.755 32.9433 172.992C37.2109 175.23 41.9589 176.399 46.779 176.398C47.2415 176.398 47.7012 176.386 48.1585 176.365C48.6308 176.386 49.1052 176.398 49.5825 176.398H161.291C169.329 176.398 177.079 173.41 183.031 168.016C188.983 162.622 192.711 155.209 193.488 147.221C194.02 144.708 194.287 142.146 194.286 139.577V139.577Z" stroke="#3F3D56" stroke-miterlimit="10"/>
<path d="M48.3328 115.781C61.2788 115.781 71.7736 105.302 71.7736 92.3757C71.7736 79.4491 61.2788 68.9701 48.3328 68.9701C35.3868 68.9701 24.892 79.4491 24.892 92.3757C24.892 105.302 35.3868 115.781 48.3328 115.781Z" fill="#FFC107"/>
<path d="M48.4092 41.3423H48.4092C45.2362 41.3423 42.6639 43.9107 42.6639 47.0789V58.7359C42.6639 61.9041 45.2362 64.4725 48.4092 64.4725H48.4092C51.5823 64.4725 54.1545 61.9041 54.1545 58.7359V47.0789C54.1545 43.9107 51.5823 41.3423 48.4092 41.3423Z" fill="#FFC107"/>
<path d="M92.6338 66.9252L92.6338 66.9252C91.0472 64.1814 87.5335 63.2413 84.7855 64.8255L74.6752 70.6539C71.9272 72.238 70.9857 75.7465 72.5722 78.4903L72.5722 78.4903C74.1588 81.2341 77.6725 82.1742 80.4205 80.5901L90.5308 74.7616C93.2788 73.1775 94.2203 69.669 92.6338 66.9252Z" fill="#FFC107"/>
<path d="M4.03177 117.826L4.03177 117.826C5.61829 120.57 9.13206 121.51 11.88 119.926L21.9904 114.097C24.7383 112.513 25.6798 109.005 24.0933 106.261C22.5068 103.517 18.993 102.577 16.2451 104.161L6.13469 109.99C3.38676 111.574 2.44525 115.082 4.03177 117.826Z" fill="#FFC107"/>
<path d="M4.10837 66.7927L4.10836 66.7927C2.52185 69.5365 3.46336 73.045 6.21128 74.6292L16.3217 80.4576C19.0696 82.0418 22.5834 81.1017 24.1699 78.3579L24.1699 78.3579C25.7564 75.614 24.8149 72.1056 22.067 70.5214L11.9566 64.693C9.20865 63.1088 5.69489 64.0489 4.10837 66.7927Z" fill="#FFC107"/>
<path d="M51.092 113.026C64.038 113.026 74.5328 102.547 74.5328 89.6204C74.5328 76.6939 64.038 66.2148 51.092 66.2148C38.1461 66.2148 27.6512 76.6939 27.6512 89.6204C27.6512 102.547 38.1461 113.026 51.092 113.026Z" stroke="#3F3D56" stroke-miterlimit="10"/>
<path d="M51.1686 38.5871H51.1686C47.9956 38.5871 45.4233 41.1555 45.4233 44.3237V55.9806C45.4233 59.1489 47.9956 61.7173 51.1686 61.7173H51.1686C54.3417 61.7173 56.9139 59.1489 56.9139 55.9806V44.3237C56.9139 41.1555 54.3417 38.5871 51.1686 38.5871Z" stroke="#3F3D56" stroke-miterlimit="10"/>
<path d="M95.393 64.17L95.393 64.17C93.8065 61.4262 90.2927 60.4861 87.5448 62.0702L77.4344 67.8987C74.6865 69.4828 73.745 72.9913 75.3315 75.7351L75.3315 75.7351C76.918 78.4789 80.4318 79.419 83.1797 77.8349L93.2901 72.0064C96.038 70.4223 96.9796 66.9138 95.393 64.17Z" stroke="#3F3D56" stroke-miterlimit="10"/>
<path d="M6.79117 115.071L6.79117 115.071C5.20465 112.327 6.14616 108.819 8.89409 107.234L19.0045 101.406C21.7524 99.8219 25.2662 100.762 26.8527 103.506L26.8527 103.506C28.4392 106.25 27.4977 109.758 24.7497 111.342L14.6394 117.171C11.8915 118.755 8.37769 117.815 6.79117 115.071Z" stroke="#3F3D56" stroke-miterlimit="10"/>
<path d="M6.86765 64.0375L6.86764 64.0375C5.28112 66.7813 6.22263 70.2898 8.97056 71.8739L19.0809 77.7024C21.8289 79.2865 25.3426 78.3464 26.9291 75.6026L26.9291 75.6026C28.5157 72.8588 27.5742 69.3503 24.8262 67.7662L14.7159 61.9377C11.9679 60.3536 8.45416 61.2937 6.86765 64.0375Z" stroke="#3F3D56" stroke-miterlimit="10"/>
<path d="M174.899 132.927L170.863 141.143C170.863 141.143 163.566 140.213 166.515 149.824C166.515 149.824 165.739 157.11 164.187 158.66C162.634 160.21 165.429 170.441 171.018 167.496C174.162 165.839 174.358 163.937 173.928 162.59C173.261 160.581 173.131 158.433 173.551 156.359C174.112 153.736 175.122 150.383 176.917 147.499C180.488 141.763 183.904 136.183 183.904 136.183L174.899 132.927Z" fill="#A0616A"/>
<path d="M164.808 82.3916C164.808 82.3916 155.958 80.2214 153.009 81.7716C150.059 83.3218 141.365 83.4768 141.365 83.4768C141.365 83.4768 134.068 95.2581 135.776 101.304C137.484 107.349 144.625 111.07 144.625 111.07L168.689 111.225L172.57 95.4131C172.57 95.4131 170.707 84.5619 169.155 83.9418C167.602 83.3218 164.808 82.3916 164.808 82.3916Z" fill="#3F3D56"/>
<path d="M156.89 41.4671C164.178 41.4671 170.086 35.5678 170.086 28.2906C170.086 21.0135 164.178 15.1142 156.89 15.1142C149.602 15.1142 143.694 21.0135 143.694 28.2906C143.694 35.5678 149.602 41.4671 156.89 41.4671Z" fill="#2F2E41"/>
<path d="M148.662 39.6069C148.662 39.6069 150.214 46.1176 147.885 46.8927C145.557 47.6678 143.538 50.7681 143.538 50.7681L146.954 56.5038L158.598 59.4491L162.168 56.0387L164.808 48.7529L162.168 46.8927C162.168 46.8927 159.684 47.6678 159.529 45.1875C159.455 43.3259 159.507 41.4615 159.684 39.6069L148.662 39.6069Z" fill="#A0616A"/>
<path opacity="0.1" d="M148.662 39.6069C148.662 39.6069 150.214 46.1176 147.885 46.8927C145.557 47.6678 143.538 50.7681 143.538 50.7681L146.954 56.5038L158.598 59.4491L162.168 56.0387L164.808 48.7529L162.168 46.8927C162.168 46.8927 159.684 47.6678 159.529 45.1875C159.455 43.3259 159.507 41.4615 159.684 39.6069L148.662 39.6069Z" fill="black"/>
<path d="M154.639 43.8699C159.869 43.8699 164.109 39.6363 164.109 34.4138C164.109 29.1914 159.869 24.9578 154.639 24.9578C149.409 24.9578 145.169 29.1914 145.169 34.4138C145.169 39.6363 149.409 43.8699 154.639 43.8699Z" fill="#A0616A"/>
<path d="M154.095 56.0387L145.091 47.8228C145.091 47.8228 141.054 51.2332 140.589 51.2332C140.123 51.2332 134.068 53.0934 133.913 53.8685C133.758 54.6436 139.191 62.8595 139.191 62.8595C139.191 62.8595 137.949 68.9052 139.191 71.5405C140.433 74.1757 139.502 85.492 139.502 85.492C139.502 85.492 147.73 82.5467 152.077 83.9418C156.424 85.337 169.155 83.9418 169.155 83.9418C169.155 83.9418 171.018 72.0055 170.242 70.4553C169.465 68.9052 169.31 60.0692 169.31 60.0692L175.986 52.7834C175.986 52.7834 174.589 47.2028 169.31 46.8927C164.031 46.5827 160.771 46.2726 160.771 46.2726L154.095 56.0387Z" fill="#2F2E41"/>
<path d="M143.538 94.1729C143.538 94.1729 126.15 86.2671 119.164 82.5467C112.178 78.8262 101.466 81.7716 104.881 90.1425C108.297 98.5134 127.392 106.729 127.392 106.729C127.392 106.729 133.602 111.38 137.328 111.225C141.054 111.07 146.411 111.147 146.411 111.147L143.538 94.1729Z" fill="#3F3D56"/>
<path d="M170.397 95.2581C170.397 95.2581 201.602 95.5681 199.584 107.194C197.566 118.821 185.611 138.198 183.438 138.663C181.264 139.128 173.347 135.718 173.347 134.632C173.347 133.547 180.954 113.55 180.954 113.55L162.324 107.814L170.397 95.2581Z" fill="#3F3D56"/>
<path d="M176.296 60.5342C176.296 60.5342 178.159 78.3612 177.228 81.1515C176.296 83.9418 173.036 91.5377 168.844 95.2581C164.652 98.9785 158.753 117.736 155.493 108.745C152.232 99.7536 160.771 94.793 160.771 94.793L169.33 82.7687L169.411 63.2002L176.296 60.5342Z" fill="#A0616A"/>
<path d="M141.365 97.8934C141.365 97.8934 156.735 103.319 158.442 102.544C160.15 101.769 163.876 104.559 163.876 104.559C165.598 104.191 167.376 104.166 169.107 104.485C170.839 104.804 172.491 105.462 173.967 106.419C178.935 109.675 180.022 113.395 178.935 113.55C177.849 113.705 173.967 112 173.967 112C173.967 112 168.068 110.76 164.497 111.845C160.926 112.93 156.273 110.642 156.273 110.642L137.328 106.419L141.365 97.8934Z" fill="#A0616A"/>
<path opacity="0.1" d="M141.365 97.8934C141.365 97.8934 156.735 103.319 158.442 102.544C160.15 101.769 163.876 104.559 163.876 104.559C165.598 104.191 167.376 104.166 169.107 104.485C170.839 104.804 172.491 105.462 173.967 106.419C178.935 109.675 180.022 113.395 178.935 113.55C177.849 113.705 173.967 112 173.967 112C173.967 112 168.068 110.76 164.497 111.845C160.926 112.93 156.273 110.642 156.273 110.642L137.328 106.419L141.365 97.8934Z" fill="black"/>
<path d="M133.913 67.1999C133.913 67.1999 134.068 86.4221 136.397 88.7473C138.726 91.0726 141.21 94.1729 143.538 95.5681C145.867 96.9632 147.109 100.219 147.109 100.219C147.109 100.219 158.287 116.495 158.442 109.055C158.598 101.614 152.698 95.7231 152.698 95.7231L151.544 94.6252C149.017 92.2517 146.733 89.6338 144.725 86.81C144.266 86.1366 143.71 85.5355 143.073 85.0269C141.054 83.4768 140.589 66.4249 140.589 66.4249L133.913 67.1999Z" fill="#A0616A"/>
<path d="M172.726 50.9232L175.986 52.7834C175.986 52.7834 177.228 60.9993 177.849 62.0844C178.47 63.1695 170.242 65.9598 168.999 65.1848C167.757 64.4097 167.136 56.8138 167.136 56.8138L172.726 50.9232Z" fill="#2F2E41"/>
<path d="M135.931 53.7134H133.913C133.913 53.7134 131.739 56.0387 131.895 60.9992C132.05 65.9598 130.032 69.0601 131.274 69.5252C132.516 69.9902 138.711 67.5286 138.641 68.2169C138.57 68.9051 141.831 67.665 141.831 67.665L139.657 59.4491L135.931 53.7134Z" fill="#2F2E41"/>
<path opacity="0.1" d="M120.329 85.492C120.329 85.492 129.799 89.5224 132.438 90.1425C135.078 90.7626 143.608 98.0183 143.608 98.0183L137.785 106.847C137.785 106.847 131.817 106.109 128.557 105.489C125.297 104.869 105.89 92.0027 109.151 89.8325C112.411 87.6622 120.329 85.492 120.329 85.492Z" fill="black"/>
<path d="M118.388 85.492C118.388 85.492 127.858 89.5224 130.497 90.1425C133.137 90.7626 143.538 97.8934 143.538 97.8934L138.415 107.814C138.415 107.814 129.876 106.109 126.616 105.489C123.356 104.869 103.95 92.0027 107.21 89.8325C110.47 87.6622 118.388 85.492 118.388 85.492Z" fill="#3F3D56"/>
<path d="M159.452 32.5536C166.74 32.5536 172.648 26.6543 172.648 19.3771C172.648 12.1 166.74 6.20068 159.452 6.20068C152.163 6.20068 146.255 12.1 146.255 19.3771C146.255 26.6543 152.163 32.5536 159.452 32.5536Z" fill="#2F2E41"/>
<path d="M163.178 12.4014C166.607 12.4014 169.388 9.62523 169.388 6.20069C169.388 2.77614 166.607 0 163.178 0C159.748 0 156.968 2.77614 156.968 6.20069C156.968 9.62523 159.748 12.4014 163.178 12.4014Z" fill="#2F2E41"/>
<path d="M0 180.875H221" stroke="#3F3D56" stroke-miterlimit="10"/>
</g>
<defs>
<clipPath id="clip0">
<rect width="221" height="181" fill="white"/>
</clipPath>
</defs>
</svg>
